<?xml version="1.0" encoding="UTF-8"?>
<svg width="389px" height="418px" viewBox="0 0 389 418" version="1.1" xmlns="http://www.w3.org/2000/svg" xmlns:xlink="http://www.w3.org/1999/xlink">
    <!-- Generator: Sketch 60 (88103) - https://sketch.com -->
    <title>Group 8</title>
    <desc>Created with Sketch.</desc>
    <g id="Page-1" stroke="none" stroke-width="1" fill="none" fill-rule="evenodd">
        <g id="Artboard" transform="translate(-678.000000, -1396.000000)">
            <g id="Group-8" transform="translate(692.000000, 1410.000000)">
                <polygon id="Path" stroke="#ADADAD" stroke-width="25" points="180.95125 0 361 65.8863109 333.0225 303.257541 180.5 389 27.075 303.257541 0 65.8863109"></polygon>
                <g id="Group-5" transform="translate(70.000000, 41.000000)" fill="#ADADAD">
                    <path d="M100.793058,0.414112036 L214.466609,37.1488363 C218.933572,38.5923795 221.384539,43.3837922 219.940996,47.850756 L219.932611,47.8765625 L217.098167,56.5528336 C215.643661,61.0050969 210.861516,63.4417001 206.404633,62.0014144 L176.133556,52.219 L153.143476,122.595092 C175.773024,139.900906 190.357543,167.098737 190.357543,197.684515 C190.357543,249.965585 147.744556,292.347766 95.1787716,292.347766 C42.6129875,292.347766 0,249.965585 0,197.684515 C0,146.037024 41.5864179,104.049951 93.2721282,103.039879 L116.202556,32.851 L92.7310817,25.2666901 C88.2641179,23.8231469 85.8131513,19.0317342 87.2566945,14.5647704 L87.2650796,14.5389639 L90.0995233,5.86269279 C91.5540295,1.41042946 96.336174,-1.02617375 100.793058,0.414112036 Z M18.032013,173.34755 C15.4152324,181.272533 14,189.73752 14,198.530485 C14,243.164637 50.4662966,279.347766 95.4497531,279.347766 C131.722269,279.347766 162.456893,255.821346 173.00007,223.308273 L173.00007,223.308273 Z" id="Combined-Shape"></path>
                </g>
            </g>
        </g>
    </g>
</svg>