<?xml version="1.0" encoding="UTF-8"?>
<svg width="389px" height="418px" viewBox="0 0 389 418" version="1.1" xmlns="http://www.w3.org/2000/svg" xmlns:xlink="http://www.w3.org/1999/xlink">
    <!-- Generator: Sketch 60 (88103) - https://sketch.com -->
    <title>Group 8 Copy</title>
    <desc>Created with Sketch.</desc>
    <g id="Page-1" stroke="none" stroke-width="1" fill="none" fill-rule="evenodd">
        <g id="Artboard" transform="translate(-678.000000, -852.000000)">
            <g id="Group-8-Copy" transform="translate(692.000000, 866.000000)">
                <polygon id="Path" stroke="#ADADAD" stroke-width="25" points="181 0 361 65.8863109 333.0225 303.257541 180.5 389 27.075 303.257541 0 65.8863109"></polygon>
                <g id="Group-5" transform="translate(74.000000, 48.000000)">
                    <g id="Group-10">
                        <g id="Group-11">
                            <g id="Group-6">
                                <path d="M97.6904775,0.410023889 L207.846195,36.1508893 C212.175163,37.548216 214.544694,42.1938817 213.140817,46.5207238 C213.140108,46.5229081 213.139399,46.5250922 213.132139,46.5251452 L210.367038,55.0231512 C208.953821,59.3441267 204.310511,61.7100097 199.984101,60.3135187 L170.673494,50.8028677 L148.395944,119.271666 C170.32403,136.108344 184.45647,162.568919 184.45647,192.325608 C184.45647,243.189423 143.164482,284.422692 92.2282348,284.422692 C41.2919872,284.422692 -2.84217094e-14,243.189423 -2.84217094e-14,192.325608 C-2.84217094e-14,142.078182 40.2972638,101.229303 90.3807394,100.246634 L112.600494,31.9608677 L89.8283832,24.5726533 C85.4994158,23.1753266 83.1298845,18.5296609 84.5337615,14.2028188 C84.5344702,14.2006344 84.5351799,14.1984504 84.542439,14.1983974 L87.3075406,5.70039136 C88.7207579,1.37941585 93.3640673,-0.986467068 97.6904775,0.410023889 Z" id="Combined-Shape" fill="#ADADAD"></path>
                                <path d="M29.4219257,158.279549 L164.404462,201.970199 C160.917924,238.760965 129.856947,267.545196 92.0550051,267.545196 C51.9177087,267.545196 19.3800011,235.094604 19.3800011,195.06477 C19.3800011,181.637335 23.0410495,169.062695 29.4219257,158.279549 Z" id="Combined-Shape" fill="#FFFFFF"></path>
                                <g id="Group-7" transform="translate(83.727261, 216.078251) rotate(-355.000000) translate(-83.727261, -216.078251) translate(24.227261, 170.578251)" fill="#B7B7B7">
                                    <g id="Group-9" transform="translate(59.334726, 45.349019) rotate(-345.000000) translate(-59.334726, -45.349019) translate(6.834726, 12.849019)">
                                        <path d="M43.6728941,15.055538 L43.6728093,24.381538 L16.0830916,24.382236 L16.0828093,51.188538 L7.52980933,51.1888293 L7.52980933,15.055538 L43.6728941,15.055538 Z" id="Combined-Shape" transform="translate(25.601352, 33.122184) rotate(-45.000000) translate(-25.601352, -33.122184) "></path>
                                        <path d="M97.1345404,15.055538 L97.1344556,24.381538 L69.5447378,24.382236 L69.5444556,51.188538 L60.9914556,51.1888293 L60.9914556,15.055538 L97.1345404,15.055538 Z" id="Combined-Shape-Copy" transform="translate(79.062998, 33.122184) rotate(-225.000000) translate(-79.062998, -33.122184) "></path>
                                        <path d="M52.3343427,0.752196029 C55.0370167,0.752012943 57.2281152,2.94281466 57.2282983,5.64548861 C57.2282983,5.64570964 57.2282983,5.64593067 57.2282983,5.6461517 L57.2246259,59.8447756 C57.2244427,62.5479231 55.0331545,64.7392112 52.330007,64.7393944 C49.6273331,64.7395775 47.4362345,62.5487757 47.4360514,59.8461018 C47.4360514,59.8458808 47.4360514,59.8456597 47.4360514,59.8454387 L47.4397239,5.64681481 C47.439907,2.94366734 49.6311952,0.752379148 52.3343427,0.752196029 Z" id="Rectangle" transform="translate(52.332175, 32.745795) rotate(-345.000000) translate(-52.332175, -32.745795) "></path>
                                    </g>
                                </g>
                            </g>
                        </g>
                    </g>
                </g>
            </g>
        </g>
    </g>
</svg>